/* XPM */
static char *arch_logo_32x32[] = {
/* columns rows colors chars-per-pixel */
"32 32 3 1 ",
"  c None",
". c #BEBEBE",
"X c #BFBFBF",
/* pixels */
"                                ",
"               ..               ",
"               ..               ",
"               ..               ",
"              ....              ",
"              ....              ",
"             ......             ",
"             ......             ",
"            ........            ",
"            ........            ",
"             ........           ",
"           .. .......           ",
"          ............          ",
"          ............          ",
"         ..............         ",
"         ..............         ",
"        ................        ",
"        ................        ",
"       ..................       ",
"       .......    .......       ",
"      .......      .......      ",
"      .......      .......      ",
"     ........      ........     ",
"     ........       .......     ",
"    ........        ......      ",
"    ........        .......     ",
"   .........        .........   ",
"   .......            .......   ",
"  .....                  .....  ",
" ...                        ... ",
" ..                           . ",
"                                "
};
