/* XPM */
static char *_fa5ecea223f1a845c63c9a08eba172e[] = {
/* columns rows colors chars-per-pixel */
"50 50 4 1 ",
"  c None",
". c gray74",
"X c gray",
"o c gray75",
/* pixels */
"                                                  ",
"                        XX                        ",
"                        XX                        ",
"                        XX                        ",
"                       XXXX                       ",
"                       XXXX                       ",
"                      XXXXXX                      ",
"                      XXXXXX                      ",
"                     XXXXXXXX                     ",
"                     XXXXXXXX                     ",
"                     XXXXXXXXX                    ",
"                    XXXXXXXXXX                    ",
"                    XXXXXXXXXX                    ",
"                   XXXXXXXXXXXX                   ",
"                   XXXXXXXXXXXX                   ",
"                    XXXXXXXXXXXX                  ",
"                     XXXXXXXXXXX                  ",
"                 XXX  XXXXXXXXXXX                 ",
"                 XXXXX XXXXXXXXXX                 ",
"                XXXXXXXXXXXXXXXXXX                ",
"                XXXXXXXXXXXXXXXXXX                ",
"               XXXXXXXXXXXXXXXXXXXX               ",
"               XXXXXXXXXXXXXXXXXXXX               ",
"              XXXXXXXXXXXXXXXXXXXXXX              ",
"              XXXXXXXXXXXXXXXXXXXXXX              ",
"             oXXXXXXXXXXXXXXXXXXXXXXX             ",
"             XXXXXXXXXXXXXXXXXXXXXXXX             ",
"            oXXXXXXXXXXXXXXXXXXXXXXXXX            ",
"            XXXXXXXXXXXXXXXXXXXXXXXXXX            ",
"           XXXXXXXXXXXXo  XXXXXXXXXXXXX           ",
"           XXXXXXXXXXX      XXXXXXXXXXX           ",
"          XXXXXXXXXXX        XXXXXXXXXXX          ",
"          XXXXXXXXXXX        XXXXXXXXXXXX         ",
"         XXXXXXXXXXX          XXXXXXXXXXX         ",
"        XXXXXXXXXXXX          XXXXXXXXXXXX        ",
"        XXXXXXXXXXXX          XXXXXXXXXXXX        ",
"       XXXXXXXXXXXXX           XXXXXXXXXXXX       ",
"       XXXXXXXXXXXX            XXXXXXXX  XX       ",
"      XXXXXXXXXXXXX            XXXXXXXXXX         ",
"      XXXXXXXXXXXXX            XXXXXXXXXXX        ",
"     XXXXXXXXXXXXXXX           XXXXXXXXXXXXX      ",
"     XXXXXXXXXXXXXX            XXXXXXXXXXXXXX     ",
"    XXXXXXXXXXXX                  XXXXXXXXXXXX    ",
"    XXXXXXXXX                        XXXXXXXXX    ",
"   XXXXXXXX                            XXXXXXXX   ",
"  XXXXXXX                                XXXXXXX  ",
"  XXXX                                      XXXX  ",
" XXXX                                         XXX ",
" XX                                            XX ",
"                                                  "
};
