/* XPM */
static char *arch_logo_16x16[] = {
/* columns rows colors chars-per-pixel */
"16 16 2 1 ",
"  c None",
". c #BEBEBE",
/* pixels */
"                ",
"       ..       ",
"       ..       ",
"       ...      ",
"      ....      ",
"      ....      ",
"     ......     ",
"     ......     ",
"    ........    ",
"    ........    ",
"   ....  ....   ",
"  ....    ....  ",
"  ....    ...   ",
" ....      .... ",
" ..          .. ",
"                "
};
